<?xml version="1.0" standalone="no"?>
<!DOCTYPE svg PUBLIC "-//W3C//DTD SVG 20010904//EN"
 "http://www.w3.org/TR/2001/REC-SVG-20010904/DTD/svg10.dtd">
<svg version="1.0" xmlns="http://www.w3.org/2000/svg"
 width="100.000000pt" height="100.000000pt" viewBox="0 0 100.000000 100.000000"
 preserveAspectRatio="xMidYMid meet">
<metadata>
Created by potrace 1.11, written by Peter Selinger 2001-2013
</metadata>
<g transform="translate(0.000000,100.000000) scale(0.100000,-0.100000)"
fill="#000000" stroke="none">
<path d="M210 485 l0 -265 30 0 c26 0 30 -4 30 -28 l0 -29 117 1 118 1 0 25
c0 20 6 26 28 28 24 3 27 0 27 -26 l0 -30 119 0 118 0 1 264 0 264 -29 0 c-26
0 -29 4 -29 30 l0 30 -120 0 -120 0 0 -31 c0 -27 -3 -30 -27 -27 -23 2 -28 8
-27 31 l1 27 -118 0 -119 0 0 -265z m171 186 c1 -9 1 -22 0 -28 -1 -8 10 -13
29 -13 29 0 37 -14 31 -52 0 -5 12 -8 29 -8 29 0 37 -14 31 -52 0 -5 13 -8 29
-8 17 0 30 5 31 13 0 6 2 46 2 87 l2 75 56 1 56 2 0 -204 0 -204 -58 0 -58 0
3 45 c3 50 -8 71 -39 77 -14 2 -20 11 -20 28 0 20 -6 26 -30 30 -24 4 -30 10
-29 28 1 12 -1 23 -5 23 -35 8 -51 4 -52 -10 -1 -9 -2 -61 -3 -116 l-1 -100
-57 -3 -58 -3 0 205 0 206 55 -1 c43 -1 55 -5 56 -18z"/>
</g>
</svg>
